name C:\Users\u0113767\Documents\WORK_KULeuven\MRI_model_creation\SEMLS_2\gait1\gait1_EMG.mot
datacolumns 17
datarows 22
range 3.22000000 3.24100000
endheader
                time	        Voltage.LREF	        Voltage.LVAL	        Voltage.LBIF	        Voltage.LMEH	        Voltage.LTIA	        Voltage.LGAS	        Voltage.LSOL	        Voltage.LGLU	        Voltage.RREF	        Voltage.RVAL	        Voltage.RBIF	        Voltage.RMEH	        Voltage.RTIA	        Voltage.RGAS	        Voltage.RSOL	        Voltage.RGLU	
          3.22000000	          0.14782473	          0.70274080	          0.07471815	          0.18883177	          0.11133187	          0.35219459	          0.74135888	          0.80950905	          0.47872759	          0.33766214	          0.36808607	          0.20048083	          0.12853836	          0.05480286	          0.14501562	          0.01666564	
          3.22100000	          0.14783044	          0.69664671	          0.07360979	          0.19224986	          0.10946174	          0.34979300	          0.73340066	          0.79999513	          0.47237949	          0.33213895	          0.38622230	          0.20436920	          0.12951929	          0.05817671	          0.15049278	          0.01627816	
          3.22200000	          0.14794455	          0.69098529	          0.07248894	          0.19555300	          0.10766676	          0.34783315	          0.72555218	          0.79005105	          0.46572501	          0.32607564	          0.40496217	          0.20838582	          0.13041731	          0.06166814	          0.15586570	          0.01596587	
          3.22300000	          0.14816275	          0.68576959	          0.07135034	          0.19871251	          0.10595766	          0.34630420	          0.71784275	          0.77974653	          0.45878789	          0.31946894	          0.42427192	          0.21250398	          0.13123567	          0.06527322	          0.16110575	          0.01573421	
          3.22400000	          0.14847906	          0.68101278	          0.07018780	          0.20170216	          0.10434530	          0.34519140	          0.71030561	          0.76914847	          0.45159421	          0.31232799	          0.44412099	          0.21670411	          0.13198281	          0.06898769	          0.16618123	          0.01558878	
          3.22500000	          0.14888727	          0.67672376	          0.06899418	          0.20450004	          0.10283982	          0.34447698	          0.70297364	          0.75832045	          0.44417617	          0.30467893	          0.46447896	          0.22097265	          0.13266929	          0.07280683	          0.17105763	          0.01553544	
          3.22600000	          0.14938153	          0.67290508	          0.06776346	          0.20708939	          0.10144988	          0.34414206	          0.69587404	          0.74732322	          0.43657250	          0.29656436	          0.48531076	          0.22530202	          0.13330652	          0.07672550	          0.17569835	          0.01558099	
          3.22700000	          0.14995595	          0.66955399	          0.06649288	          0.20945874	          0.10018187	          0.34416745	          0.68902586	          0.73621678	          0.42882291	          0.28803689	          0.50657457	          0.22969147	          0.13390739	          0.08073814	          0.18006684	          0.01573303	
          3.22800000	          0.15060511	          0.66666861	          0.06518282	          0.21159948	          0.09903938	          0.34453297	          0.68244066	          0.72506324	          0.42096256	          0.27915370	          0.52822148	          0.23414743	          0.13448615	          0.08483837	          0.18413107	          0.01599916	
          3.22900000	          0.15132436	          0.66425508	          0.06383535	          0.21350224	          0.09802304	          0.34521662	          0.67612443	          0.71392623	          0.41302138	          0.26997278	          0.55019635	          0.23868252	          0.13505698	          0.08901853	          0.18786772	          0.01638605	
          3.23000000	          0.15210865	          0.66232665	          0.06245377	          0.21515577	          0.09713077	          0.34619449	          0.67007815	          0.70286661	          0.40502754	          0.26054873	          0.57244084	          0.24331332	          0.13563304	          0.09326973	          0.19126258	          0.01689914	
          3.23100000	          0.15295058	          0.66089746	          0.06104279	          0.21654806	          0.09635819	          0.34744170	          0.66429673	          0.69193938	          0.39701290	          0.25093093	          0.59489529	          0.24805686	          0.13622604	          0.09758213	          0.19430852	          0.01754314	
          3.23200000	          0.15383958	          0.65997992	          0.05960793	          0.21766719	          0.09569924	          0.34893254	          0.65876851	          0.68119381	          0.38901592	          0.24116561	          0.61749589	          0.25292855	          0.13684570	          0.10194532	          0.19700381	          0.01832277	
          3.23300000	          0.15476286	          0.65958479	          0.05815453	          0.21850122	          0.09514678	          0.35063888	          0.65347647	          0.67067357	          0.38107822	          0.23129773	          0.64017073	          0.25794374	          0.13750108	          0.10634851	          0.19934991	          0.01924249	
          3.23400000	          0.15570808	          0.65971964	          0.05668766	          0.21903812	          0.09469262	          0.35253017	          0.64840072	          0.66041503	          0.37323870	          0.22137094	          0.66283838	          0.26311864	          0.13820348	          0.11078014	          0.20134898	          0.02030559	
          3.23500000	          0.15666637	          0.66038656	          0.05521268	          0.21926699	          0.09432652	          0.35457533	          0.64351967	          0.65044510	          0.36553181	          0.21142766	          0.68540829	          0.26846832	          0.13896800	          0.11522762	          0.20300326	          0.02151371	
          3.23600000	          0.15763348	          0.66158015	          0.05373543	          0.21918081	          0.09403554	          0.35674338	          0.63880952	          0.64078022	          0.35798957	          0.20150947	          0.70778245	          0.27400439	          0.13981332	          0.11967782	          0.20431603	          0.02286703	
          3.23700000	          0.15860842	          0.66328626	          0.05226192	          0.21877829	          0.09380505	          0.35900416	          0.63424544	          0.63142633	          0.35064289	          0.19165650	          0.72985910	          0.27973484	          0.14076003	          0.12411857	          0.20529294	          0.02436476	
          3.23800000	          0.15959158	          0.66548169	          0.05079795	          0.21806238	          0.09361964	          0.36133113	          0.62980433	          0.62237916	          0.34352010	          0.18190628	          0.75153548	          0.28566702	          0.14182771	          0.12853983	          0.20594338	          0.02600527	
          3.23900000	          0.16058339	          0.66813474	          0.04934913	          0.21703755	          0.09346323	          0.36370292	          0.62546636	          0.61362493	          0.33664414	          0.17229337	          0.77270668	          0.29181122	          0.14303305	          0.13293303	          0.20628026	          0.02778560	
          3.24000000	          0.16158264	          0.67120713	          0.04792130	          0.21570964	          0.09331983	          0.36610257	          0.62121657	          0.60514224	          0.33003054	          0.16284973	          0.79326240	          0.29817959	          0.14439099	          0.13728960	          0.20631919	          0.02970095	
          3.24100000	          0.16258505	          0.67465632	          0.04652070	          0.21408893	          0.09317519	          0.36851711	          0.61704805	          0.59690620	          0.32368778	          0.15360572	          0.81308491	          0.30478298	          0.14591655	          0.14159975	          0.20607834	          0.03174470	
